<svg width="17" height="17" viewBox="0 0 17 17" fill="none" xmlns="http://www.w3.org/2000/svg">
<path d="M6.44492 4.01969L6.16156 3.38215C5.97629 2.9653 5.88366 2.75686 5.74512 2.59735C5.57149 2.39745 5.34518 2.25038 5.09199 2.1729C4.88996 2.11108 4.66187 2.11108 4.2057 2.11108C3.53837 2.11108 3.20471 2.11108 2.92462 2.23936C2.59468 2.39047 2.29671 2.71858 2.17799 3.06151C2.0772 3.35262 2.10608 3.65179 2.16381 4.25013C2.77837 10.619 6.27009 14.1107 12.6389 14.7253C13.2373 14.783 13.5365 14.8119 13.8275 14.7111C14.1705 14.5924 14.4986 14.2944 14.6498 13.9645C14.778 13.6844 14.778 13.3507 14.778 12.6834C14.778 12.2272 14.778 11.9991 14.7162 11.7971C14.6387 11.5439 14.4916 11.3176 14.2917 11.1439C14.1322 11.0054 13.9238 10.9128 13.5069 10.7275L12.8694 10.4442C12.418 10.2435 12.1922 10.1432 11.9629 10.1214C11.7433 10.1005 11.522 10.1313 11.3165 10.2113C11.1018 10.2949 10.9121 10.453 10.5325 10.7694C10.1548 11.0841 9.9659 11.2415 9.73508 11.3258C9.53045 11.4006 9.25994 11.4283 9.04447 11.3966C8.80134 11.3607 8.61521 11.2612 8.24288 11.0623C7.08458 10.4433 6.44581 9.80451 5.82679 8.64621C5.62783 8.27388 5.52836 8.08775 5.49253 7.84462C5.46077 7.62915 5.48846 7.35864 5.5632 7.15401C5.64752 6.92321 5.80493 6.73432 6.11976 6.35653C6.43602 5.97701 6.59416 5.78725 6.67777 5.57254C6.75778 5.36708 6.78858 5.14574 6.7677 4.92624C6.74588 4.69686 6.64556 4.47114 6.44492 4.01969Z" stroke="white" stroke-width="1.05556" stroke-linecap="round"/>
</svg>
