<svg width="24" height="25" viewBox="0 0 24 25" fill="none" xmlns="http://www.w3.org/2000/svg">
<path fill-rule="evenodd" clip-rule="evenodd" d="M6.18182 10.9344C5.20406 10.9344 5 11.1263 5 12.0455V13.7122C5 14.6315 5.20406 14.8233 6.18182 14.8233H8.54545V21.49C8.54545 22.4092 8.74951 22.6011 9.72727 22.6011H12.0909C13.0687 22.6011 13.2727 22.4092 13.2727 21.49V14.8233H15.9267C16.6683 14.8233 16.8594 14.6878 17.0631 14.0175L17.5696 12.3508C17.9185 11.2025 17.7035 10.9344 16.4332 10.9344H13.2727V8.15663C13.2727 7.54298 13.8018 7.04551 14.4545 7.04551H17.8182C18.7959 7.04551 19 6.85366 19 5.9344V3.71218C19 2.79292 18.7959 2.60107 17.8182 2.60107H14.4545C11.191 2.60107 8.54545 5.08838 8.54545 8.15663V10.9344H6.18182Z" stroke="#A1A1A1" stroke-width="1.5" stroke-linejoin="round"/>
</svg>
