<svg width="24" height="25" viewBox="0 0 24 25" fill="none" xmlns="http://www.w3.org/2000/svg">
<path d="M2.5 12.6011C2.5 8.12273 2.5 5.88356 3.89124 4.49231C5.28249 3.10107 7.52166 3.10107 12 3.10107C16.4783 3.10107 18.7175 3.10107 20.1088 4.49231C21.5 5.88356 21.5 8.12273 21.5 12.6011C21.5 17.0794 21.5 19.3186 20.1088 20.7099C18.7175 22.1011 16.4783 22.1011 12 22.1011C7.52166 22.1011 5.28249 22.1011 3.89124 20.7099C2.5 19.3186 2.5 17.0794 2.5 12.6011Z" stroke="#A1A1A1" stroke-width="1.5" stroke-linejoin="round"/>
<path d="M16.5 12.6011C16.5 15.0864 14.4853 17.1011 12 17.1011C9.51472 17.1011 7.5 15.0864 7.5 12.6011C7.5 10.1158 9.51472 8.10107 12 8.10107C14.4853 8.10107 16.5 10.1158 16.5 12.6011Z" stroke="#A1A1A1" stroke-width="1.5"/>
<path d="M17.5078 7.10107H17.4988" stroke="#A1A1A1" stroke-width="1.5" stroke-linecap="round" stroke-linejoin="round"/>
</svg>
