<svg width="24" height="25" viewBox="0 0 24 25" fill="none" xmlns="http://www.w3.org/2000/svg">
<path d="M4.5 10.1011H4C3.05719 10.1011 2.58579 10.1011 2.29289 10.394C2 10.6869 2 11.1583 2 12.1011V20.6011C2 21.5439 2 22.0153 2.29289 22.3082C2.58579 22.6011 3.05719 22.6011 4 22.6011H4.5C5.44281 22.6011 5.91421 22.6011 6.20711 22.3082C6.5 22.0153 6.5 21.5439 6.5 20.6011V12.1011C6.5 11.1583 6.5 10.6869 6.20711 10.394C5.91421 10.1011 5.44281 10.1011 4.5 10.1011Z" stroke="#A1A1A1" stroke-width="1.5"/>
<path d="M6.5 4.85107C6.5 6.09371 5.49264 7.10107 4.25 7.10107C3.00736 7.10107 2 6.09371 2 4.85107C2 3.60843 3.00736 2.60107 4.25 2.60107C5.49264 2.60107 6.5 3.60843 6.5 4.85107Z" stroke="#A1A1A1" stroke-width="1.5"/>
<path d="M12.326 10.1011H11.5C10.5572 10.1011 10.0858 10.1011 9.79289 10.394C9.5 10.6869 9.5 11.1583 9.5 12.1011V20.6011C9.5 21.5439 9.5 22.0153 9.79289 22.3082C10.0858 22.6011 10.5572 22.6011 11.5 22.6011H12C12.9428 22.6011 13.4142 22.6011 13.7071 22.3082C14 22.0153 14 21.5439 14 20.6011L14.0001 17.1012C14.0001 15.4444 14.5281 14.1012 16.0879 14.1012C16.8677 14.1012 17.5 14.7728 17.5 15.6012V20.1012C17.5 21.044 17.5 21.5154 17.7929 21.8083C18.0857 22.1012 18.5572 22.1012 19.5 22.1012H19.9987C20.9413 22.1012 21.4126 22.1012 21.7055 21.8084C21.9984 21.5156 21.9985 21.0443 21.9987 20.1017L22.0001 14.6013C22.0001 12.1161 19.6364 10.1013 17.2968 10.1013C15.9649 10.1013 14.7767 10.7542 14.0001 11.7751C14 11.145 14 10.83 13.8632 10.5961C13.7765 10.4479 13.6531 10.3246 13.505 10.2379C13.2711 10.1011 12.9561 10.1011 12.326 10.1011Z" stroke="#A1A1A1" stroke-width="1.5" stroke-linejoin="round"/>
</svg>
