<svg width="17" height="17" viewBox="0 0 17 17" fill="none" xmlns="http://www.w3.org/2000/svg">
<path d="M10.9074 7.7408C10.9074 9.10105 9.80467 10.2038 8.44441 10.2038C7.08415 10.2038 5.98145 9.10105 5.98145 7.7408C5.98145 6.38054 7.08415 5.27783 8.44441 5.27783C9.80467 5.27783 10.9074 6.38054 10.9074 7.7408Z" stroke="white" stroke-width="1.05556"/>
<path d="M8.44442 1.40735C11.8719 1.40735 14.7778 4.24537 14.7778 7.68847C14.7778 11.1864 11.8245 13.641 9.09675 15.3102C8.89795 15.4225 8.67312 15.4814 8.44442 15.4814C8.21571 15.4814 7.99088 15.4225 7.79208 15.3102C5.06938 13.6248 2.11108 11.1985 2.11108 7.68847C2.11108 4.24537 5.01699 1.40735 8.44442 1.40735Z" stroke="white" stroke-width="1.05556"/>
</svg>
