<svg width="17" height="17" viewBox="0 0 17 17" fill="none" xmlns="http://www.w3.org/2000/svg">
<path d="M1.40747 4.22217L6.27219 6.97855C8.06563 7.99472 8.82338 7.99472 10.6168 6.97855L15.4815 4.22217" stroke="white" stroke-width="1.05556" stroke-linejoin="round"/>
<path d="M1.41857 9.48288C1.46457 11.6402 1.48757 12.7187 2.28355 13.5178C3.07953 14.3168 4.18733 14.3446 6.40294 14.4002C7.76846 14.4346 9.12056 14.4346 10.4861 14.4002C12.7017 14.3446 13.8095 14.3168 14.6055 13.5178C15.4015 12.7187 15.4245 11.6402 15.4704 9.48288C15.4853 8.78924 15.4853 8.09975 15.4704 7.40611C15.4245 5.24888 15.4015 4.17026 14.6055 3.37126C13.8095 2.57225 12.7017 2.54442 10.4861 2.48875C9.12056 2.45444 7.76846 2.45444 6.40294 2.48874C4.18733 2.5444 3.07953 2.57224 2.28355 3.37125C1.48757 4.17026 1.46457 5.24887 1.41856 7.40611C1.40377 8.09975 1.40378 8.78924 1.41857 9.48288Z" stroke="white" stroke-width="1.05556" stroke-linejoin="round"/>
</svg>
