<svg width="16" height="23" viewBox="0 0 16 23" fill="none" xmlns="http://www.w3.org/2000/svg">
<path fill-rule="evenodd" clip-rule="evenodd" d="M2.18182 9.93437C1.20406 9.93437 1 10.1263 1 11.0455V12.7122C1 13.6315 1.20406 13.8233 2.18182 13.8233H4.54545V20.49C4.54545 21.4092 4.74951 21.6011 5.72727 21.6011H8.0909C9.0687 21.6011 9.2727 21.4092 9.2727 20.49V13.8233H11.9267C12.6683 13.8233 12.8594 13.6878 13.0631 13.0175L13.5696 11.3508C13.9185 10.2025 13.7035 9.93437 12.4332 9.93437H9.2727V7.15663C9.2727 6.54298 9.8018 6.04551 10.4545 6.04551H13.8182C14.7959 6.04551 15 5.85366 15 4.9344V2.71218C15 1.79292 14.7959 1.60107 13.8182 1.60107H10.4545C7.191 1.60107 4.54545 4.08838 4.54545 7.15663V9.93437H2.18182Z" stroke="#A1A1A1" stroke-width="1.5" stroke-linejoin="round"/>
</svg>
